<?xml version="1.0" encoding="utf-8"?><svg viewBox="0 0 130 41" xmlns="http://www.w3.org/2000/svg" xmlns:xlink="http://www.w3.org/1999/xlink"><style>:root>svg{display:none}:root>svg:target{display:block}</style><svg fill="none" viewBox="0 0 130 41" id="logo" xmlns="http://www.w3.org/2000/svg"><path d="M130 21.788h-2.838c-.107-.352-.138-21.158-.038-21.685.315-.1 2.199-.13 2.876-.046v21.73zm-20.603-.016h-2.93V7.114c-.031-.015-.061-.023-.1-.038-.692.84-1.307 1.75-1.961 2.622-.654.872-1.292 1.767-1.938 2.646-.654.895-1.315 1.782-1.969 2.676-.646.88-1.292 1.767-1.93 2.654l-1.984 2.745c-3.284-4.481-6.506-8.924-9.821-13.32-.1.497-.07.986-.077 1.468-.008.482 0 .963 0 1.437V21.75H83.85c-.1-.322-.138-21.09-.03-21.709.476-.061.968-.046 1.46-.007.078.007.17.107.224.183 1.484 2.019 2.968 4.037 4.445 6.056 1.238 1.69 2.484 3.38 3.73 5.07.9 1.223 1.792 2.439 2.691 3.662.062.076.131.145.27.306a3.44 3.44 0 01.138-.26c1.492-2.05 2.992-4.09 4.491-6.132l4.599-6.27c.577-.788 1.161-1.568 1.723-2.363.146-.199.3-.29.546-.283.407.015.815.008 1.253.008.008 7.287.008 14.505.008 21.761zM44.813.055h2.845c.008.23.023.428.023.627v17.403c0 .78-.046.718.7.71l16.989-.045h.507c.108.329.139 2.378.046 3.005H44.836c-.085-.306-.13-20.959-.023-21.7zM10.874.016h.654c.777 0 1.554.007 2.33 0 .231 0 .362.068.485.283 1.746 3.073 3.507 6.14 5.26 9.206 1.661 2.905 3.33 5.803 4.991 8.709.608 1.063 1.215 2.118 1.823 3.18.061.108.1.23.17.375-.162.008-.278.023-.393.023-.877 0-1.753-.007-2.63.008-.262 0-.423-.061-.554-.306A5213.412 5213.412 0 0012.597 3.12c-.492-.872-.992-1.743-1.484-2.623-.07-.122-.123-.252-.239-.481zM3.392 21.779H0c.092-.183.146-.321.223-.451.938-1.644 1.877-3.28 2.807-4.924l3.415-5.987c.284-.49.569-.98.846-1.476.084-.16.192-.237.376-.23 1.023.008 2.046 0 3.054 0 .023.031.03.046.03.054.008.015.016.03.008.038a1.546 1.546 0 01-.085.199C8.26 13.253 5.83 17.505 3.392 21.779zm22.263 14.167v4.932c-.4.137-.561.137-.953.007v-7.462c.33-.115.538-.016.73.244 1.062 1.46 2.13 2.913 3.2 4.374.146.199.3.39.484.642.123-.145.223-.26.315-.374 1.13-1.537 2.269-3.074 3.384-4.619.192-.267.392-.374.7-.283.092.306.123 6.936.03 7.501-.3.123-.607.123-.953-.015v-4.947c-.03-.015-.061-.023-.1-.038-1.146 1.475-2.215 3.005-3.353 4.557l-3.353-4.557c-.046.007-.085.023-.13.038zm57.588-2.416c.153-.007.284-.022.415-.022h4.306c.577 0 1.139.076 1.677.283.677.26 1.108.734 1.238 1.46.085.467.046.933-.092 1.377-.17.55-.538.948-1.092 1.108-.43.13-.884.16-1.33.222-.17.023-.339 0-.523.053.422.543.96.941 1.438 1.392.469.444.96.864 1.445 1.3a.483.483 0 00-.038.092c-.4 0-.808.015-1.207-.008-.116-.008-.239-.1-.331-.176-.838-.741-1.684-1.483-2.507-2.248-.308-.29-.63-.428-1.054-.397-.43.03-.869.007-1.361.007-.07.956.008 1.866-.046 2.799h-.892c-.123-.283-.154-6.66-.046-7.241zm.93 3.419c.17.015.254.038.346.038h3.945c.162 0 .323-.023.477-.054.585-.114.885-.466.923-1.047.039-.62-.208-1.002-.792-1.193-.123-.038-.254-.084-.377-.092-.492-.03-.992-.06-1.484-.06-.877-.009-1.754-.009-2.63 0-.37 0-.392.03-.4.404-.008.36 0 .727 0 1.086-.008.275-.008.581-.008.918zm-39.999 4.02c-.83-.038-1.638-.146-2.384-.52-.93-.467-1.576-1.178-1.876-2.187-.37-1.216-.154-2.332.6-3.342.56-.757 1.36-1.192 2.268-1.391 1.162-.26 2.323-.245 3.446.214 1.153.466 1.914 1.285 2.245 2.493.53 1.934-.6 4.052-2.907 4.55-.461.106-.93.121-1.392.183zm.339-1.017c.422 0 .853-.1 1.538-.436 1.8-.895 2-3.296.369-4.458-1.323-.94-3.223-.917-4.56.03-1.346.956-1.362 2.998-.2 3.992.715.612 1.553.88 2.853.872zm28.077 1.019c-.845-.038-1.653-.168-2.422-.535-1.684-.81-2.26-2.691-1.915-4.098.393-1.568 1.462-2.455 2.977-2.806 1.169-.276 2.345-.214 3.483.252 2.092.841 2.9 3.31 1.8 5.238-.561.986-1.461 1.521-2.538 1.774-.454.1-.923.114-1.384.175zm.085-1.016c.6.03 1.246-.138 1.846-.46 1.592-.856 1.746-2.729.954-3.807-.43-.589-1.023-.94-1.715-1.14-1.292-.382-2.5-.19-3.569.62-1.269.956-1.307 2.883-.115 3.93.715.612 1.569.864 2.6.857zm32.386-5.356c-.246.176-.431.29-.6.428-.162.13-.3.107-.477.008-1.23-.658-2.545-.818-3.907-.55a2.324 2.324 0 00-.692.267c-.369.199-.523.543-.492.956.03.382.27.627.63.764.585.222 1.2.253 1.808.298.73.062 1.461.1 2.176.222.377.061.769.214 1.092.42.8.498.915 1.79.262 2.501-.408.444-.938.696-1.515.826-1.238.275-2.5.36-3.722-.038-.623-.2-1.208-.505-1.808-.765-.061-.03-.115-.084-.223-.168.3-.214.562-.405.83-.597 1.408.864 2.916.94 4.469.68a2.23 2.23 0 00.838-.343c.639-.428.577-1.239-.138-1.514-.369-.145-.792-.184-1.2-.23-.854-.091-1.723-.137-2.576-.236a3.16 3.16 0 01-1.354-.475c-.923-.573-.923-2.11-.138-2.775.484-.413 1.046-.635 1.653-.757 1.685-.329 3.253.023 4.73.84.108.047.208.13.354.238zm-47.197 6.173v-6.209c-.208-.015-.377-.046-.546-.046-.908-.007-1.815 0-2.723 0-.154 0-.315-.015-.492-.03v-.933c.146-.015.27-.038.4-.038h7.721c.43 0 .446.015.454.436v.52c-.192.015-.346.045-.5.045-.907.008-1.815 0-2.722 0-.116 0-.231 0-.354.008-.154.008-.239.092-.239.252v6.002c-.33-.007-.63-.007-1-.007z" fill="#32302D"/></svg><svg fill="none" viewBox="0 0 17 17" id="search-icon" xmlns="http://www.w3.org/2000/svg"><circle cx="7.173" cy="7.173" r="6.673" stroke="#32302D"/><path d="M12.138 12.14L16 16.004" stroke="#32302D" stroke-linecap="round"/></svg></svg>